<?xml version="1.0" encoding="UTF-8"?><svg xmlns="http://www.w3.org/2000/svg" viewBox="0 0 71 71.12"><defs><style>.d,.e{fill:#af8857;}.f,.g{fill:#ece2c2;}.f,.g,.e{stroke-miterlimit:10;}.f,.e{stroke:#af8857;}.g{stroke:#5d3f26;}</style></defs><g id="a"/><g id="b"><g id="c"><g><path class="g" d="M59.59,30.91c-.02-.08-.03-.16-.05-.24l-.55,.28,.6-.04Z"/><path class="f" d="M14.58,35.73c0,11.64,9.44,21.08,21.09,21.08s21.08-9.44,21.08-21.08-9.44-21.09-21.08-21.09c-4.84,0-9.29,1.65-12.85,4.4l2.08,3.17-3.27-2.18c-4.31,3.86-7.05,9.45-7.05,15.7Zm21.09-17.29c9.55,0,17.29,7.74,17.29,17.29s-7.74,17.29-17.29,17.29-17.29-7.74-17.29-17.29,7.74-17.29,17.29-17.29Z"/><path class="f" d="M35.66,53.01c9.55,0,17.29-7.74,17.29-17.29s-7.74-17.29-17.29-17.29-17.29,7.74-17.29,17.29,7.74,17.29,17.29,17.29Zm0-30.27c7.17,0,12.98,5.81,12.98,12.98s-5.81,12.98-12.98,12.98-12.98-5.81-12.98-12.98,5.81-12.98,12.98-12.98Z"/><path class="f" d="M35.66,48.71c7.17,0,12.98-5.81,12.98-12.98s-5.81-12.98-12.98-12.98-12.98,5.81-12.98,12.98,5.81,12.98,12.98,12.98Zm-.12-22.29c5.21,0,9.43,4.22,9.43,9.44s-4.22,9.43-9.43,9.43-9.44-4.22-9.44-9.43,4.22-9.44,9.44-9.44Z"/><path class="f" d="M35.54,45.29c5.21,0,9.43-4.22,9.43-9.43s-4.22-9.44-9.43-9.44-9.44,4.22-9.44,9.44,4.22,9.43,9.44,9.43Zm.06-14.72c2.88,0,5.22,2.34,5.22,5.22s-2.34,5.22-5.22,5.22-5.22-2.34-5.22-5.22,2.34-5.22,5.22-5.22Z"/><circle class="e" cx="35.6" cy="35.79" r="5.22"/><path class="f" d="M54.98,56.09l4.39,2.28c5.59-5.88,9.02-13.82,9.02-22.58,0-1.17-.06-2.32-.18-3.46-.07-.64-.16-1.28-.26-1.91l-4.67,.27c.3,1.63,.46,3.31,.46,5.03,0,8.02-3.37,15.25-8.76,20.36Z"/><path class="f" d="M7.59,35.73c0-7.67,3.08-14.62,8.07-19.69l-3.98-2.66C6.18,19.24,2.81,27.12,2.81,35.79c0,18.11,14.68,32.79,32.79,32.79,8.44,0,16.14-3.19,21.95-8.44l-3.38-3.32c-4.94,4.34-11.42,6.98-18.51,6.98-15.5,0-28.07-12.57-28.07-28.07Z"/><path class="f" d="M62.91,28.95l4.23-2.15C63.23,13.07,50.59,3,35.6,3c-7.18,0-13.82,2.31-19.22,6.23l2.58,3.93c4.67-3.46,10.44-5.51,16.7-5.51,13.17,0,24.22,9.07,27.25,21.3Z"/><path class="f" d="M63.74,35.73c0-1.72-.16-3.4-.46-5.03l-3.69,.22c.31,1.56,.48,3.16,.48,4.81,0,13.48-10.92,24.4-24.4,24.4s-24.4-10.92-24.4-24.4c0-6.92,2.88-13.16,7.51-17.6l-3.12-2.08c-4.99,5.07-8.07,12.02-8.07,19.69,0,15.5,12.57,28.07,28.07,28.07,7.1,0,13.57-2.64,18.51-6.98l-2.46-2.42,3.26,1.69c5.39-5.12,8.76-12.34,8.76-20.36Z"/><path class="f" d="M59.53,30.67l3.37-1.71c-3.03-12.23-14.08-21.3-27.25-21.3-6.26,0-12.03,2.05-16.7,5.51l2.02,3.08c4.09-3.08,9.17-4.91,14.68-4.91,11.74,0,21.54,8.29,23.87,19.34Z"/><path class="f" d="M35.66,60.12c13.48,0,24.4-10.92,24.4-24.4,0-1.65-.17-3.26-.48-4.81l-.6,.04,.55-.28c-2.33-11.05-12.13-19.34-23.87-19.34-5.51,0-10.6,1.83-14.68,4.91l1.83,2.8c3.56-2.75,8.01-4.4,12.85-4.4,11.64,0,21.08,9.44,21.08,21.09s-9.44,21.08-21.08,21.08-21.09-9.44-21.09-21.08c0-6.25,2.73-11.84,7.05-15.7l-2.85-1.9c-4.63,4.44-7.51,10.68-7.51,17.6,0,13.48,10.92,24.4,24.4,24.4Z"/><path class="d" d="M69.2,25.36c-.47-1.45-1.06-2.86-1.81-4.18-.03-.06-.38-.86-.33-.4-.03-.29,.13-.62,.11-.94-.03-.29-.1-.54-.27-.79-.11-.19-.26-.34-.45-.45-.48-.35-.5,0-.04,1.08,.52-.45,.44-1.31,0-1.77-.51-.54-.85-.99-1.1-1.68s-.85-1.07-1.19-1.71-.69-1.23-1.32-1.58c-.09-.05-.18-.13-.28-.16,.16,.06,.14,.49,.11,0-.03-.43-.23-.86-.53-1.16-.58-.6-1.27-.52-1.97-.84-.55-.25-.92-.9-1.27-1.36-.5-.64-.92-.98-1.68-1.25-.67-.24-1.2-.88-1.72-1.36-1.19-1.07-2.97,.69-1.77,1.77,.57,.51,1.11,1.08,1.74,1.51,.55,.38,1.12,.39,1.53,.92s.83,1.12,1.38,1.56c.3,.24,.61,.43,.97,.56,.17,.06,.34,.11,.52,.15,.23,.05,.71,.33,.45-.06s-.12,.09-.09,.26c.04,.19,.09,.38,.19,.56,.16,.3,.38,.52,.65,.72,.22,.16,.46,.28,.64,.5,.2,.24,.29,.58,.46,.84,.19,.31,.46,.54,.68,.82,.19,.25,.26,.58,.41,.88,.34,.71,.88,1.3,1.42,1.86v-1.77c-.61,.52-.75,1.42-.34,2.1,.1,.17,.29,.46,.5,.53,.64,.21-.28-.65-.1-.65-.12,0-.12,1.07-.11,1.14,.13,.81,.74,1.55,1.1,2.27,.44,.88,.79,1.79,1.1,2.72,.5,1.52,2.91,.87,2.41-.66h0Z"/><path class="d" d="M55.55,7.05c-.15-.49-.36-.92-.75-1.26-.44-.39-.87-.4-1.39-.6-.42-.16-.72-.55-1.13-.78-.46-.25-1-.24-1.44-.52s-.74-.66-1.27-.8-1.05-.05-1.58-.25c-.64-.24-1.18-.61-1.77-.94-.54-.3-.86-.28-1.46-.24-.47,.03-.81-.17-1.26-.34-.49-.19-.93-.23-1.45-.28s-.93-.26-1.44-.41c-.58-.17-1.06-.12-1.65-.09-.38,.02,.33,.3-.26-.1-.21-.15-.45-.24-.7-.31-.6-.15-1.05,.03-1.64,.09s-1.06-.26-1.65-.21c-.83,.07-1.38,.48-2.27,.35-1.57-.24-2.25,2.17-.66,2.41,.58,.09,1.12,.15,1.7,.09,.31-.03,.66-.06,.96-.17,0,0,.52-.22,.35-.21,.17,0,.54,.22,.73,.26,.31,.06,.59,.05,.9,.02,.68-.08,.75-.23,1.33,.14,.44,.28,.89,.27,1.4,.2,.59-.08,.88-.03,1.44,.19,.89,.35,1.77,.27,2.66,.62,.42,.17,.83,.3,1.29,.3,.17,0,.45,.01,.61-.07,.25-.03,.18-.06-.19-.07l.32,.21c.74,.58,1.97,1.07,2.89,1.21,.27,.04,.55,.01,.8,.11,.2,.08,.41,.35,.57,.46,.42,.29,.84,.33,1.31,.5,.44,.16,.7,.54,1.11,.77,.23,.13,1.14,.27,1.18,.4,.48,1.53,2.9,.88,2.41-.66h0Z"/><path class="d" d="M31.61,.62c-1.13-.14-2.1,.3-3.2,.42-.44,.05-.87-.05-1.31,.06-.37,.09-.65,.42-.98,.52,.34-.11-.31-.11-.41-.11-.23,0-.46,.06-.67,.14-.33,.12-.55,.39-.86,.53-.4,.18-.87,.09-1.29,.3s-.59,.57-.92,.84l.55-.32c-.29,.12-.6,.04-.92,.07-.43,.04-.85,.17-1.22,.39-.65,.39-1.15,.89-1.84,1.23-.75,.37-1.32,.99-2.09,1.34-.39,.17-.73,.3-.96,.69-.08,.13-.15,.3-.19,.44-.02,.14-.04,.28-.05,.42-.02,.15,0,.11,.05-.11l2.33,.63c0-.46-.1-.86-.36-1.23-.93-1.29-3.1-.05-2.16,1.26l.02-.03c0,1.35,1.62,1.55,2.33,.63,.28-.36,.26-.8,.3-1.24l-.17,.63,.07-.14-.45,.45c-.2,.14,.25-.12,.32-.15,.18-.07,.35-.15,.52-.24,.37-.2,.7-.47,1.03-.73,.61-.48,1.35-.72,1.96-1.21,.2-.16,.42-.41,.66-.5s.53-.02,.79-.03c.42-.03,.79-.13,1.14-.37,.15-.1,.26-.21,.38-.35,.05-.06,.1-.13,.15-.2,.1-.13,.06-.11-.1,.08,.52,.13,1.31-.28,1.7-.59,.3-.24,.25-.06,0-.09,.17,.03,.35,.07,.52,.07,.37,0,.74-.13,1.06-.31,.13-.07,.26-.2,.4-.26-.15,.06,.02,.01,.12,0,.4-.03,.79,0,1.2-.08,.88-.15,1.66-.46,2.57-.34,.67,.08,1.25-.64,1.25-1.25,0-.75-.58-1.16-1.25-1.25h0Z"/><path class="d" d="M10.01,12.21c-.62,.22-.99,.51-1.38,1.04-.89,1.19,.96,2.41,1.96,1.51l.69-.62c.89-.8-.04-2.54-1.22-2.09-.71,.28-1.34,.63-1.84,1.22-.24,.28-.38,.6-.59,.89,.32-.43-.42,.33-.49,.43-.21,.28-.31,.58-.39,.92-.07,.28-.29,.6,.09,.23-.27,.26-.56,.39-.78,.72-.08,.12-.25,.55-.26,.56-.24,.33-.55,.44-.68,.88-.07,.22-.12,.84,.06,1.02,.5-.74,.58-1.02,.23-.83-.08,.04-.17,.08-.25,.13-.29,.18-.55,.43-.72,.73s-.29,.73-.27,1.07c-.05,.31-.02,.32,.08,.01-.14,.1-.28,.2-.41,.31-.55,.55-.65,1.36-.25,2.02l1.41-1.84c-2.16-.43-2.77,1.9-2.32,3.57l.32-1.22c-.5,.39-1.06,.42-1.39,1.07-.4,.79-.07,1.49,.08,2.27,.2,1.01,1.84,1.27,2.28,.3,.04-.17,.13-.31,.28-.41,.99-.94-.08-2.27-1.22-2.09-.79,.12-1.18,.81-1.42,1.51-.2,.59-.49,1.68-.26,2.3-.05,.36,.04,.33,.27-.11-.16,.09-.31,.19-.44,.31-.28,.29-.39,.67-.37,1.07,0,.23,.06,.44,.17,.63-.11,.05-.14,.16-.09,.32-.04,.4-.18,.82-.27,1.21-.35,1.57,2.06,2.24,2.41,.66,.13-.59,.3-1.18,.39-1.78,.05-.32,.08-.62,.01-.93l-.07-.25c-.15-.39-.17-.4-.05-.04l-.62,1.08c.7-.44,1.09-.97,1.15-1.82,.02-.34-.02-.68,0-1.02,0-.19,.03-.36,.07-.54,.02-.1,.05-.19,.08-.28,.11-.25,.01-.22-.29,.1l-1.22-2.09c-.29,.27-.51,.56-.67,.91l2.28,.3c-.04-.18-.06-.37-.14-.54l-.08-.26c-.25,.44-.25,.59-.02,.45,.27,.03,.73-.42,.91-.56,.34-.26,.43-.83,.32-1.22-.06-.18-.09-.37-.06-.57,.09-.45-.14-.43-.69,.07,1.03,.21,2.01-.85,1.41-1.84l-.09-.15,.13,.96c-.34,.3-.37,.36-.1,.18l.25-.2c.19-.16,.34-.34,.46-.56,.15-.28,.19-.54,.23-.85,.02-.12,.03-.23,.04-.35,.04-.26-.04-.18-.24,.24,.19,.14,.97-.7,1.04-.82,.28-.48,.11-.83,.11-1.32l-.37,.88c.18-.22,.43-.39,.6-.64,.12-.17,.18-.42,.3-.57,.37-.47,.78-.59,.97-1.26,.06-.23,.08-.47,.13-.7-.24,.27-.24,.3,0,.1,.19-.11,.34-.26,.45-.45,.34-.44,.51-.91,1.08-1.13l-1.22-2.09-.69,.62,1.96,1.51-.11,.11c1.51-.53,.86-2.94-.66-2.41h0Z"/><path class="d" d="M.44,32.43c0,.39-.32,.72-.29,1.18,.01,.22,.08,.43,.12,.65,.02,.1,.09,.85,.15,.92,0,0,.81-1.21,.08-.46-.18,.18-.28,.4-.34,.64s-.08,.51-.01,.75c.04,.14,.1,.27,.18,.39,.1,.15,.07,.13-.09-.08-.16,.5-.31,.99-.2,1.52,.06,.26,.17,.52,.33,.73l.2,.25c.06-.64,.01-.72-.14-.25-.17,.41-.19,.87-.15,1.3,.05,.51,.35,.88,.46,1.35l.13-.96-.08,.13,.75-.57c-.87,.22-1.29,.93-1.11,1.8,.04,.2,.09,.66,.22,.79,0,.19,.04,.21,.1,.07,.11-.17,.08-.12-.08,.16-.2,.48-.33,1-.19,1.52,.23,.87,1.07,1.51,1.98,1.4,1.14-.13,1.59-1.15,1.44-2.16-.09-.61-.97-1.11-1.54-.87-.95,.39-1.26,1.13-1.1,2.13,.07,.46,.17,.92,.27,1.37,.09,.39,.41,.82,.49,1.04,.05,.12,.02,.75,.12,1.05,.14,.42,.42,.74,.59,1.13,.15,.34,.12,.71,.3,1.06,.2,.39,.57,.7,.87,1.01,1.11,1.17,2.88-.6,1.77-1.77l-.36-.38c.05,.36,.06,.42,.04,.2-.02-.29-.08-.55-.18-.82-.16-.42-.54-.8-.66-1.22-.08-.28,.03-.65-.06-.95s-.31-.49-.43-.75c-.09-.22-.12-.47-.16-.7l-.12-.63c-.03-.27-.06-.23-.1,.12l-.75,.57,.15-.06-1.54-.87c.77,.16,1.29-.01,1.54-.52,.08-.13,.14-.26,.19-.41,.06-.25,.04-.5,0-.75-.04-.27-.12-.53-.19-.8l-.09-.32c-.1-.47-.13-.42-.08,.16l-.57,.75c-.16,.1-.08,.07,.23-.08,.19-.11,.34-.26,.45-.45,.23-.34,.28-.69,.2-1.09-.06-.28-.3-.52-.35-.77-.07-.34,.05-.44,.14-.77,.1-.36,.11-.73-.02-1.09-.05-.17-.13-.33-.25-.46-.23-.26-.27-.33-.13-.19-.03-.37,.31-.79,.28-1.22-.03-.4-.2-.69-.4-1.02l.13,.96,.03-.17-.57,.75c.86-.5,.96-1.21,.84-2.13-.03-.22-.06-.43-.1-.64-.01-.05-.28-1.04-.14-.36-.04,.34,0,.35,.11,.03l.13-.3c.09-.27,.1-.56,.1-.84-.03-1.61-2.53-1.61-2.5,0H.44Z"/><path class="d" d="M4.11,49.79c-.41,.51-.61,1-.42,1.66,.08,.27,.21,.49,.38,.7,.07,.1,.15,.19,.25,.27,.39,.44,.52,.09,.41-1.04-.88,.14-1.03,1.18-.75,1.84,.37,.84,1.07,1.58,2.06,1.52s1.56-.78,1.68-1.7c.08-.61-.64-1.33-1.25-1.25-.83,.11-1.56,.61-1.56,1.54s.88,1.86,1.39,2.59c.26,.38,.49,.73,.95,.88,.43,.11,.44,.06,.05-.17-.25-.28-.33-.31-.26-.1-.04,.09,.12,.4,.15,.48,.37,.94,1.16,1.3,2.12,1.16l-1.54-.87,.21,.69c.22,.73,1.14,1.21,1.84,.75l-1.06-.96c-.5,.74,.05,1.56,.75,1.84l.57,.23-.87-1.54c-.19,.68-.03,1.36,.5,1.85,.25,.24,.49,.28,.77,.46s.22,.15,.41,.5c.57,1.04,2.29,1.35,2.86,.12l-1.96,.25c.83,.92,1.95,2.09,3.28,2.02l-1.08-.62c-.26-.57-.14-.12-.06,.17,.05,.2,.17,.4,.29,.56,.28,.36,.71,.41,1.03,.69,.38,.34,.57,.79,1.01,1.08,.57,.37,1.1,.4,1.75,.3l-1.54-1.54c-.38,.98,.42,1.89,1.35,2.08,.1,.01,.19,.03,.29,.03,.23,.04,.17,0-.17-.13,.15,.14,.3,.28,.48,.39,.21,.12,.43,.21,.67,.27l.27,.04c.49,.17,.48-.08-.02-.74-.1,.65,.16,1.37,.87,1.54l2.75,.66c1.56,.37,2.23-2.04,.66-2.41l-2.75-.66,.87,1.54c.17-1.03-.31-1.92-1.35-2.24-.39-.12-.61-.14-.94-.35-.2-.13-.41-.25-.65-.31l-.33-.04c-.62-.12-.48,.22,.4,1.02,.38-.99-.71-1.67-1.54-1.54,.34-.05,.06-.23-.09-.42-.14-.18-.28-.36-.44-.52-.38-.36-.8-.52-1.28-.67l.75,.57c.14,.29,.16,.41,.08,0-.04-.22-.12-.4-.21-.6-.17-.37-.68-.64-1.08-.62-.47,.02-1.24-.98-1.51-1.28-.5-.56-1.63-.46-1.96,.25,.25-.54,1.85,.44,1.23-.63-.12-.21-.26-.37-.44-.53-.15-.13-.3-.22-.47-.3-.14-.06-.27-.12-.42-.17-.32-.15-.28,.06,.13,.64,.2-.71-.25-1.29-.87-1.54l-.57-.23,.75,1.84c1.04-1.54-.76-3.52-2.36-2.46l1.84,.75-.21-.69c-.21-.7-.85-.97-1.54-.87l-.2,.03,.96,.13c.17,.08-.02-.25-.07-.36-.1-.24-.21-.44-.39-.64-.38-.41-.83-.54-1.37-.57l1.08,.62-.72-1.06-.31-.45c-.26-.55-.4-.38-.43,.5l-.88,.37,.15-.02-1.25-1.25c.93-.21,1.24-.57,.92-1.08l-.75,1.84c.77-.13,1.34-.78,1.41-1.55,.03-.36-.05-.71-.23-1.03-.1-.14-.21-.28-.33-.41-.16-.2-.2-.2-.13,.02l-.37,.88,.12-.15c1.01-1.24-.75-3.01-1.77-1.77h0Z"/><path class="d" d="M24.19,68.93c1.36,.43,2.72,.94,4.12,1.19,1,.18,1.8,.54,2.86,.52,.45,0,.72,.06,.2-.25,.22,.13,.33,.39,.6,.51,.52,.23,1.08,.06,1.62,0,1.41-.15,2.85,0,4.26,.09,1.16,.07,2.4,.25,3.55-.03,.51-.12,.79-.3,1.28-.32,.6-.02,1.12,0,1.71-.21,.54-.2,1-.62,1.55-.79,.49-.15,1-.02,1.5-.22,.54-.22,.76-.54,1.34-.68,.69-.17,1.39-.29,2.09-.44,.52-.11,.93-.68,.92-1.21,0,.2,1.28-.34,1.5-.5,.27-.19,.42-.46,.66-.67,.37-.32,.44-.36,.97-.36s1.09-.39,1.21-.92,.28-.77,.74-1.02c1.42-.76,.16-2.92-1.26-2.16-.99,.53-1.66,1.41-1.89,2.51l1.21-.92c-.67,0-1.37,.04-1.97,.36s-.83,.91-1.35,1.21-1.12,.33-1.61,.77-.72,1.02-.7,1.68l.92-1.21c-.83,.18-1.69,.3-2.51,.53-.32,.09-.64,.18-.92,.38-.09,.06-.63,.38-.28,.27-.3,.09-.71-.01-1.04,.07-.35,.09-.68,.26-1,.43-.34,.18-.68,.47-1.06,.56s-.71-.05-1.09-.03c-.71,.03-1.28,.45-1.99,.5-.81,.06-1.66-.06-2.46-.11-.89-.05-1.78-.12-2.67-.13s-1.86,.24-2.73,.14l1.08,.62c-.69-1.39-2.39-.77-3.55-1.2-.83-.31-1.77-.37-2.64-.63s-1.66-.52-2.5-.78c-1.54-.48-2.2,1.93-.66,2.41h0Z"/><path class="d" d="M56.37,63.74c.28-.09,.56-.2,.8-.37,.16-.11,.31-.22,.45-.35,.08-.07,.15-.15,.23-.22l-.25,.2c.07-.05,.14-.09,.22-.12,.13-.06,.23-.13,.34-.22,.19-.15,.36-.31,.53-.48,.23-.22,.37-.57,.37-.88,0-.17-.03-.33-.11-.48-.05-.15-.14-.29-.26-.4-.24-.22-.55-.38-.88-.37s-.64,.13-.88,.37c-.13,.13-.26,.27-.4,.38l.25-.2c-.13,.1-.3,.14-.43,.24-.14,.11-.28,.21-.41,.34-.06,.06-.13,.12-.2,.18l.25-.2c-.13,.09-.26,.17-.41,.24l.3-.13c-.05,.02-.11,.04-.17,.06-.31,.1-.58,.29-.75,.57-.09,.14-.14,.3-.15,.46-.04,.17-.03,.33,.02,.5,.1,.3,.29,.59,.57,.75s.64,.23,.96,.13h0Z"/><path class="d" d="M61.28,59.43c.68-.41,1.34-.89,1.72-1.61,.31-.59,.93-1.05,1.34-1.59,.23-.3,.39-.58,.49-.95,.07-.28-.07-.01,.07-.12,.12-.1,.24-.19,.36-.29,.31-.26,.57-.57,.74-.95,.1-.22,.15-.4,.17-.65,0-.03,.02-.42-.02-.3l-.32,.55c.11-.11,.71-.31,.94-.55,.4-.43,.34-.92,.37-1.46,.02-.36,.06-.35,.29-.54,.42-.33,.8-.56,.97-1.13,.15-.5,.06-.99-.19-1.44-.03-.06-.17-.35-.23-.39-.06,.64,0,.77,.2,.39l.21-.3c.28-.41,.57-.77,.67-1.27s.1-.79,.39-1.23c.89-1.34-1.27-2.6-2.16-1.26-.29,.43-.5,.92-.6,1.44-.03,.18-.05,.36-.07,.54,.08-.17,.07-.17-.04,.01-.18,.21-.33,.47-.49,.7-.33,.47-.57,.91-.51,1.5,.03,.26,.11,.5,.24,.73,.05,.09,.1,.17,.16,.26,.13,.26,.13,.16-.02-.28l.32-.55c-.16,.2-.45,.3-.66,.48-.26,.22-.48,.49-.64,.8-.35,.69-.29,1.37-.36,2.11l.37-.88c.18-.19-.22,.08-.28,.11-.22,.1-.37,.18-.56,.35-.31,.29-.5,.7-.5,1.12,0,.11,.01,.21,.03,.32l.08-.25c-.13,.08-.3,.26-.42,.36-.32,.26-.58,.55-.76,.92-.13,.27-.16,.51-.34,.75-.24,.31-.53,.56-.81,.83s-.42,.59-.63,.92c-.19,.29-.49,.45-.78,.64-1.37,.84-.12,3,1.26,2.16h0Z"/><path class="d" d="M67.62,31.34c.14,.71,.4,1.49,.42,2.22,0,.32-.09,.61-.03,.94,.1,.52,.37,.77,.77,1.08l-.45-.45,.05,.1-.13-.96c.09-.41-.16,.62-.16,.67-.01,.3,.08,.56,.15,.84,.13,.56,.15,.95,.56,1.42l-.32-.55,.03,.17v-.66c-.15,.4-.31,.72-.29,1.16s.22,.82,.42,1.22l-.17-.63c.12-.31,.11-.28-.04,.09-.05,.11-.09,.22-.11,.34-.06,.25-.07,.51-.1,.76-.07,.62-.12,1.23-.13,1.85,0,.12-.08,.74,.02,.41-.08,.28-.24,.51-.28,.81-.07,.54-.07,1.01-.22,1.54-.44,1.55,1.97,2.21,2.41,.66,.12-.43,.22-.86,.26-1.3,.02-.17-.02-.37,.01-.53-.05,.28,.2-.46,.17-.37,.25-.8,.12-1.75,.19-2.58,.07-.72,.61-1.62,.13-2.31-.09-.14-.06-.21-.08-.01-.02,.18,.18-.36,.2-.44,.14-.59-.1-1.09-.48-1.53l.32,.55c.04,.19,.05,.18,.03-.04-.01-.17-.04-.34-.09-.51-.04-.12-.08-.23-.12-.35-.12,.48-.1,.51,.06,.08,.11-.36,.07-.72-.11-1.05-.07-.13-.15-.24-.25-.35-.29-.19-.35-.24-.18-.16l.37,.88c.02,.17-.01,0,0-.11,.02-.18,.06-.36,.06-.55,0-.36-.07-.74-.14-1.09-.12-.63-.25-1.27-.38-1.9s-.92-1.04-1.54-.87c-.69,.19-1.01,.87-.87,1.54h0Z"/><path class="d" d="M67.78,27.1c1.61,0,1.61-2.5,0-2.5s-1.61,2.5,0,2.5h0Z"/></g></g></g></svg>